# xmcd
#
# Track frame offsets:
#	150
#	21176
#	32121
#	56056
#	71182
#	90781
#	110636
#	125997
#	150542
#	167125
#	187976
#	205969
#
# Disc length: 2959 seconds
#
# Revision: 1
# Processed by: cddbd v1.5.1PL0 Copyright (c) Steve Scherf et al.
# Submitted via: audiograbber 1.83.01
#
DISCID=a70b8d0c
DTITLE=Memphis La Blusera - Antología
DYEAR=2000
DGENRE=
TTITLE0=Moscato, Pizza y Faina
TTITLE1=Cuentan las monedas
TTITLE2=Lo mismo Boogie
TTITLE3=Esto pasa ahora
TTITLE4=Blues del Rosario
TTITLE5=Tonto rompecabezas
TTITLE6=El amor en movimiento
TTITLE7=Alma bajo la lluvia
TTITLE8=Nena segui de largo
TTITLE9=La bifurcada
TTITLE10=Boogie del preso
TTITLE11=Blues de las 6 y 30
EXTD=
EXTT0=
EXTT1=
EXTT2=
EXTT3=
EXTT4=
EXTT5=
EXTT6=
EXTT7=
EXTT8=
EXTT9=
EXTT10=
EXTT11=
PLAYORDER=
